<svg xmlns="http://www.w3.org/2000/svg" viewBox="0 0 100 100" fill="none">
  <!-- Stylized Q -->
  <path d="M45 20C31.1929 20 20 31.1929 20 45C20 58.8071 31.1929 70 45 70C51.2636 70 56.9856 67.7266 61.4286 63.9286L67.5 70L72.5 65L66.4286 58.9286C70.2266 54.4856 72.5 48.7636 72.5 42.5C72.5 31.1929 61.3071 20 47.5 20H45ZM45 28C54.665 28 62.5 35.835 62.5 45.5C62.5 55.165 54.665 63 45 63C35.335 63 27.5 55.165 27.5 45.5C27.5 35.835 35.335 28 45 28Z" fill="white"/>
  
  <!-- Speed Lines (Teal/Cyan Gradient effect) -->
  <rect x="75" y="25" width="25" height="8" rx="4" fill="#14b8a6"/>
  <rect x="75" y="37" width="25" height="8" rx="4" fill="#0d9488"/>
  <rect x="75" y="49" width="25" height="8" rx="4" fill="#0f766e"/>
  
  <!-- Inner Arrow (Accent) -->
  <path d="M40 40L45 45L40 50" stroke="#14b8a6" stroke-width="4" stroke-linecap="round" stroke-linejoin="round"/>
  <path d="M48 40L53 45L48 50" stroke="#0d9488" stroke-width="4" stroke-linecap="round" stroke-linejoin="round"/>
</svg>
